<svg height="480pt" viewBox="-16 0 480 480" width="480pt" xmlns="http://www.w3.org/2000/svg"><path d="m136 352h-16v-19.390625c14.558594-6.355469 23.980469-20.722656 24-36.609375v-32c-.027344-22.082031-17.917969-39.972656-40-40h-16c-22.082031.027344-39.972656 17.917969-40 40v32c.019531 15.886719 9.441406 30.253906 24 36.609375v19.390625h-16c-30.914062.035156-55.9648438 25.085938-56 56v48c0 13.253906 10.746094 24 24 24h144c13.253906 0 24-10.746094 24-24v-48c-.035156-30.914062-25.085938-55.964844-56-56zm-48-112h16c13.253906 0 24 10.746094 24 24h-12.6875l-5.65625-5.65625c-2.140625-2.140625-5.308594-2.890625-8.183594-1.9375l-22.769531 7.59375h-14.703125c0-13.253906 10.746094-24 24-24zm-24 56v-16h16c.859375 0 1.710938-.136719 2.527344-.40625l19.3125-6.402344 4.503906 4.503906c1.507812 1.488282 3.539062 2.316407 5.65625 2.304688h16v16c0 13.253906-10.746094 24-24 24h-16c-13.253906 0-24-10.746094-24-24zm24 40h16v16h-16zm38.238281 32-12.796875 64h-34.882812l-12.796875-64zm49.761719 88c0 4.417969-3.582031 8-8 8h-144c-4.417969 0-8-3.582031-8-8v-48c.066406-19.570312 14.28125-36.222656 33.601562-39.351562l14.558594 72.953124c.761719 3.722657 4.039063 6.398438 7.839844 6.398438h48c3.800781 0 7.078125-2.675781 7.839844-6.398438l14.558594-72.953124c19.320312 3.128906 33.535156 19.78125 33.601562 39.351562zm0 0"/><path d="m392 352h-16v-19.390625c14.558594-6.355469 23.980469-20.722656 24-36.609375v-32c-.027344-22.082031-17.917969-39.972656-40-40h-16c-22.082031.027344-39.972656 17.917969-40 40v32c.019531 15.886719 9.441406 30.253906 24 36.609375v19.390625h-16c-30.914062.035156-55.964844 25.085938-56 56v48c0 13.253906 10.746094 24 24 24h144c13.253906 0 24-10.746094 24-24v-48c-.035156-30.914062-25.085938-55.964844-56-56zm-48-112h16c13.253906 0 24 10.746094 24 24h-12.6875l-5.65625-5.65625c-2.140625-2.140625-5.308594-2.890625-8.183594-1.9375l-22.769531 7.59375h-14.703125c0-13.253906 10.746094-24 24-24zm-24 56v-16h16c.859375 0 1.710938-.136719 2.527344-.40625l19.3125-6.402344 4.503906 4.503906c1.507812 1.488282 3.539062 2.316407 5.65625 2.304688h16v16c0 13.253906-10.746094 24-24 24h-16c-13.253906 0-24-10.746094-24-24zm24 40h16v16h-16zm38.238281 32-12.796875 64h-34.882812l-12.796875-64zm49.761719 88c0 4.417969-3.582031 8-8 8h-144c-4.417969 0-8-3.582031-8-8v-48c.066406-19.570312 14.28125-36.222656 33.601562-39.351562l14.558594 72.953124c.761719 3.722657 4.039063 6.398438 7.839844 6.398438h48c3.800781 0 7.078125-2.675781 7.839844-6.398438l14.558594-72.953124c19.320312 3.128906 33.535156 19.78125 33.601562 39.351562zm0 0"/><path d="m224 224c61.855469 0 112-50.144531 112-112s-50.144531-112-112-112-112 50.144531-112 112c.066406 61.828125 50.171875 111.933594 112 112zm92.71875-136.472656-15.445312-13.542969c-2.132813-1.882813-5.101563-2.492187-7.800782-1.601563l-24 8c-2.359375.792969-4.214844 2.632813-5.023437 4.984376-.808594 2.351562-.476563 4.945312.894531 7.015624l13.191406 19.785157-40.800781 68.054687-19.132813-14.351562 20.285157-33.808594c1.644531-2.78125 1.449219-6.277344-.488281-8.863281l-20.398438-27.199219 20.398438-27.199219c1.496093-1.992187 1.980468-4.566406 1.308593-6.960937-.671875-2.398438-2.417969-4.347656-4.730469-5.273438l-36.578124-14.613281-6.726563-20.242187c25.285156-9.164063 53.265625-7.246094 77.066406 5.28125 23.800781 12.527343 41.21875 34.503906 47.980469 60.535156zm-139.679688-59.199219 7.367188 22.160156c.742188 2.238281 2.429688 4.035157 4.617188 4.910157l30.3125 12.121093-17.734376 23.679688c-2.136718 2.84375-2.136718 6.757812 0 9.601562l20.796876 27.695313-21.222657 35.382812c-2.121093 3.507813-1.246093 8.050782 2.023438 10.519532l32 24c1.386719 1.039062 3.070312 1.601562 4.800781 1.601562.515625 0 1.03125-.050781 1.535156-.152344 2.222656-.433594 4.15625-1.789062 5.320313-3.726562l48-80c1.59375-2.652344 1.515625-5.988282-.199219-8.5625l-10.191406-15.277344 9.710937-3.203125 25.824219 22.59375v.328125c.027344 33.730469-17.667969 65-46.597656 82.347656-28.929688 17.34375-64.84375 18.222656-94.585938 2.308594l12.679688-33.847656c.785156-2.085938.664062-4.40625-.335938-6.402344l-24-48c-.902344-1.804688-2.453125-3.199219-4.34375-3.910156l-32.746094-12.304688c5.769532-27.03125 22.875-50.285156 46.96875-63.832031zm-48.863281 80.257813 26.070313 9.8125 21.042968 42.082031-10.183593 27.199219c-23.398438-18.136719-37.09375-46.074219-37.105469-75.679688 0-1.152344.136719-2.273438.175781-3.414062zm0 0"/><path d="m288 312v-16h-41.472656c-2.417969-6.777344-7.75-12.109375-14.527344-14.527344v-41.472656h-16v41.472656c-6.777344 2.417969-12.109375 7.75-14.527344 14.527344h-41.472656v16h41.472656c3.339844 9.585938 12.378906 16.007812 22.527344 16.007812s19.1875-6.421874 22.527344-16.007812zm-64 0c-4.417969 0-8-3.582031-8-8s3.582031-8 8-8 8 3.582031 8 8-3.582031 8-8 8zm0 0"/></svg>